<?xml version="1.0" encoding="UTF-8" standalone="no"?>
<svg
   width="2936.7891"
   height="2936.791"
   viewBox="0 0 2936.7891 2936.791"
   version="1.1"
   xml:space="preserve"
   style="clip-rule:evenodd;fill-rule:evenodd;stroke-linejoin:round;stroke-miterlimit:2"
   id="svg1163"
   sodipodi:docname="solarpunk_patch.svg"
   inkscape:version="1.2.2 (b0a8486541, 2022-12-01)"
   xmlns:inkscape="http://www.inkscape.org/namespaces/inkscape"
   xmlns:sodipodi="http://sodipodi.sourceforge.net/DTD/sodipodi-0.dtd"
   xmlns="http://www.w3.org/2000/svg"
   xmlns:svg="http://www.w3.org/2000/svg"><defs
   id="defs1167">
        
    
        
        
        
        
    </defs><sodipodi:namedview
   id="namedview1165"
   pagecolor="#ffffff"
   bordercolor="#666666"
   borderopacity="1.0"
   inkscape:showpageshadow="2"
   inkscape:pageopacity="0.0"
   inkscape:pagecheckerboard="0"
   inkscape:deskcolor="#d1d1d1"
   showgrid="false"
   inkscape:zoom="0.22542304"
   inkscape:cx="909.40128"
   inkscape:cy="1776.6596"
   inkscape:window-width="1920"
   inkscape:window-height="1131"
   inkscape:window-x="0"
   inkscape:window-y="0"
   inkscape:window-maximized="1"
   inkscape:current-layer="svg1163" />
    
    <g
   id="g1430"
   transform="translate(-1031.6055,-63.207031)"><path
     id="rect1150"
     style="fill:#019702;stroke-width:0.513192"
     d="M 2500,63.207031 A 1468.395,1468.395 0 0 0 1031.6055,1531.6016 1468.395,1468.395 0 0 0 2500,2999.998 1468.395,1468.395 0 0 0 3968.3945,1531.6016 1468.395,1468.395 0 0 0 2500,63.207031 Z" /><path
     id="path1153"
     style="fill:#e8d000"
     d="m 3759.125,776.12891 -423.0742,253.84379 c 88.2099,146.6098 138.9492,318.241 138.9492,501.6308 0,538.1195 -436.8805,975 -975,975 -354.7296,0 -665.461,-189.8414 -836.0508,-473.3711 l -420.916,252.5508 A 1468.395,1468.395 0 0 0 2500,2999.998 1468.395,1468.395 0 0 0 3968.3945,1531.6016 1468.395,1468.395 0 0 0 3759.125,776.12891 Z" /><path
     d="m 3250.31,1081.4226 c 15.69,26.14 30.01,53.12 42.9,80.8 l -103.47,91.13 c 19.44,48.19 33.78,98.3 42.78,149.48 l 136.01,22.59 c 7.42,60.69 8.46,121.99 3.1,182.9 l -135.17,27.18 c -7.26,51.46 -19.9,102.02 -37.7,150.84 l 106.5,87.57 c -23.92,56.27 -53.67,109.88 -88.77,159.95 l -130.65,-44.06 c -32.01,40.94 -68.23,78.41 -108.06,111.8 l 48.44,129.08 c -48.85,36.77 -101.42,68.32 -156.84,94.13 l -91.13,-103.47 c -48.19,19.44 -98.3,33.78 -149.48,42.78 l -22.59,136.01 c -60.69,7.42 -121.99,8.46 -182.9,3.1 l -27.18,-135.17 c -51.46,-7.26 -102.02,-19.9 -150.84,-37.7 l -87.57,106.5 c -56.27,-23.92 -109.88,-53.67 -159.94,-88.77 l 44.05,-130.65 c -40.94,-32.02 -78.41,-68.23 -111.8,-108.06 l -129.08,48.44 c -18.41,-24.45 -35.5,-49.83 -51.23,-76.04 l 187.58,-112.54 0.04,0.06 c 186.38,310.56 589.83,411.37 900.39,224.99 310.53,-186.36 411.35,-589.75 225.03,-900.33 z"
     style="fill:#e8d000"
     id="path1155" /><path
     d="m 1782.37,1727.5226 c -22.61,-17.24 -118.58,-81.8 -174.36,17.48 -81.46,145 -222.01,116.71 -297.04,20.59 -1.6,-2.04 -1.58,-4.9 0.06,-6.92 1.63,-2 4.43,-2.62 6.75,-1.49 41.61,19.96 134.78,46.79 185.52,-78.6 21.43,-52.96 40.02,-96.81 69.6,-124.75 77.82,-73.51 170.14,-71.87 184.84,-68.27 -5.08,80.5 2.86,162.26 24.63,241.96 z m 8.09,-418.45 c -9.3,-25.89 -55.07,-133.75 -156.31,-80.05 -146.91,77.94 -249.86,-21.85 -261.01,-143.28 -0.24,-2.57 1.33,-4.97 3.79,-5.79 2.45,-0.8 5.15,0.19 6.49,2.41 24.2,39.28 88.08,112.22 198.56,34.17 46.66,-32.97 86.01,-59.81 126,-67.32 104.76,-19.689 181.34,31.09 192.27,42.36 -48.66,66.42 -85.54,140.05 -109.79,217.5 z M 2825.29,862.80457 c 29.05,-6.174 138.37,-36.837 100.21,-143.058 -56.24,-156.512 57.18,-244.209 178.96,-237.969 2.58,0.125 4.74,2.022 5.19,4.574 0.45,2.546 -0.92,5.069 -3.3,6.08 -42.33,18.371 -123.61,71.218 -62.08,191.674 25.99,50.88 46.95,93.653 48.7,134.298 4.62,107.496 -57.73,176.346 -69.63,184.52903 -58.65,-58.09303 -125.76,-105.07903 -198.05,-140.12803 z m -801.09,97.041 c 6.33,-28.021 24.87,-141.687 -88.38,-151.167 -165.73,-13.862 -198.38,-153.467 -142.12,-261.646 1.19,-2.297 3.81,-3.469 6.32,-2.822 2.5,0.65 4.23,2.944 4.16,5.529 -0.87,46.137 13.43,142.029 148.56,136.097 57.08,-2.505 104.7,-3.808 142.4,11.49 98.84,40.103 135.79,124.309 138.85,139.613 -39.83,15.291 -78.88,34.237 -116.72,56.944 -33.15,19.899 -64.2,41.98 -93.07,65.962 z m 386.17,-166.672 c 20.82,-20.552 96.98,-105.776 7.16,-174.726 -131.92,-101.262 -83.92,-236.359 21.9,-296.946 2.24,-1.291 5.08,-0.86 6.84,1.041 1.75,1.9 1.97,4.762 0.51,6.9 -25.68,38.34 -65.49,126.744 51.4,194.811 49.37,28.752 90.14,53.399 113.58,86.65 62.16,88.154 46.69,180.028 41.14,192.98 -79.18,-16.659 -161.15,-20.509 -242.53,-10.71 z"
     style="fill:#e8d000"
     id="path1157" /><path
     d="m 1937.28,1869.2326 c -59.38,-98.67 -93.53,-214.19 -93.53,-337.63 0,-362.19 294.06,-656.25003 656.25,-656.25003 238.76,0 447.91,127.78003 562.72,318.62003 z"
     style="fill:#e8d000"
     id="path1159" /></g>
</svg>
